<mxfile host="app.diagrams.net" agent="Mozilla/5.0 (Windows NT 10.0; Win64; x64) AppleWebKit/537.36 (KHTML, like Gecko) Chrome/131.0.0.0 Safari/537.36" version="26.0.7">
  <diagram id="CwNFSpbyqHGLDpoQa3Lu" name="Pagina-1">
    <mxGraphModel dx="2100" dy="1044" grid="1" gridSize="10" guides="1" tooltips="1" connect="1" arrows="1" fold="1" page="1" pageScale="1" pageWidth="827" pageHeight="1169" math="0" shadow="0">
      <root>
        <mxCell id="0" />
        <mxCell id="1" parent="0" />
        <mxCell id="a0fP3EQG-N4UkuNFzpcr-1" value="" style="edgeStyle=orthogonalEdgeStyle;rounded=0;orthogonalLoop=1;jettySize=auto;html=1;entryX=0.5;entryY=0;entryDx=0;entryDy=0;" edge="1" parent="1" source="a0fP3EQG-N4UkuNFzpcr-62" target="a0fP3EQG-N4UkuNFzpcr-6">
          <mxGeometry relative="1" as="geometry">
            <mxPoint x="455" y="230.0000000000001" as="targetPoint" />
          </mxGeometry>
        </mxCell>
        <mxCell id="a0fP3EQG-N4UkuNFzpcr-2" value="START" style="ellipse;whiteSpace=wrap;html=1;" vertex="1" parent="1">
          <mxGeometry x="395" y="60" width="120" height="80" as="geometry" />
        </mxCell>
        <mxCell id="a0fP3EQG-N4UkuNFzpcr-5" value="" style="edgeStyle=orthogonalEdgeStyle;rounded=0;orthogonalLoop=1;jettySize=auto;html=1;" edge="1" parent="1" source="a0fP3EQG-N4UkuNFzpcr-6" target="a0fP3EQG-N4UkuNFzpcr-8">
          <mxGeometry relative="1" as="geometry" />
        </mxCell>
        <mxCell id="a0fP3EQG-N4UkuNFzpcr-6" value="POSTI = 100" style="whiteSpace=wrap;html=1;" vertex="1" parent="1">
          <mxGeometry x="395" y="280" width="120" height="60" as="geometry" />
        </mxCell>
        <mxCell id="a0fP3EQG-N4UkuNFzpcr-7" value="" style="edgeStyle=orthogonalEdgeStyle;rounded=0;orthogonalLoop=1;jettySize=auto;html=1;" edge="1" parent="1" source="a0fP3EQG-N4UkuNFzpcr-8" target="a0fP3EQG-N4UkuNFzpcr-11">
          <mxGeometry relative="1" as="geometry" />
        </mxCell>
        <mxCell id="a0fP3EQG-N4UkuNFzpcr-8" value="READ OPZIONE" style="shape=parallelogram;perimeter=parallelogramPerimeter;whiteSpace=wrap;html=1;fixedSize=1;" vertex="1" parent="1">
          <mxGeometry x="395" y="510" width="120" height="60" as="geometry" />
        </mxCell>
        <mxCell id="a0fP3EQG-N4UkuNFzpcr-9" value="" style="edgeStyle=orthogonalEdgeStyle;rounded=0;orthogonalLoop=1;jettySize=auto;html=1;" edge="1" parent="1" source="a0fP3EQG-N4UkuNFzpcr-11" target="a0fP3EQG-N4UkuNFzpcr-16">
          <mxGeometry relative="1" as="geometry">
            <Array as="points">
              <mxPoint x="821" y="680" />
            </Array>
          </mxGeometry>
        </mxCell>
        <mxCell id="a0fP3EQG-N4UkuNFzpcr-10" value="TRUE" style="edgeLabel;html=1;align=center;verticalAlign=middle;resizable=0;points=[];" vertex="1" connectable="0" parent="a0fP3EQG-N4UkuNFzpcr-9">
          <mxGeometry x="-0.1083" y="4" relative="1" as="geometry">
            <mxPoint as="offset" />
          </mxGeometry>
        </mxCell>
        <mxCell id="a0fP3EQG-N4UkuNFzpcr-11" value="OPZIONE == &quot;ISCRIVI&quot;" style="rhombus;whiteSpace=wrap;html=1;" vertex="1" parent="1">
          <mxGeometry x="311" y="640" width="290" height="80" as="geometry" />
        </mxCell>
        <mxCell id="a0fP3EQG-N4UkuNFzpcr-12" value="" style="edgeStyle=orthogonalEdgeStyle;rounded=0;orthogonalLoop=1;jettySize=auto;html=1;" edge="1" parent="1" source="a0fP3EQG-N4UkuNFzpcr-16" target="a0fP3EQG-N4UkuNFzpcr-17">
          <mxGeometry relative="1" as="geometry" />
        </mxCell>
        <mxCell id="a0fP3EQG-N4UkuNFzpcr-13" value="TRUE" style="edgeLabel;html=1;align=center;verticalAlign=middle;resizable=0;points=[];" vertex="1" connectable="0" parent="a0fP3EQG-N4UkuNFzpcr-12">
          <mxGeometry x="0.13" y="-2" relative="1" as="geometry">
            <mxPoint as="offset" />
          </mxGeometry>
        </mxCell>
        <mxCell id="a0fP3EQG-N4UkuNFzpcr-14" value="" style="edgeStyle=orthogonalEdgeStyle;rounded=0;orthogonalLoop=1;jettySize=auto;html=1;" edge="1" parent="1" source="a0fP3EQG-N4UkuNFzpcr-16" target="a0fP3EQG-N4UkuNFzpcr-19">
          <mxGeometry relative="1" as="geometry" />
        </mxCell>
        <mxCell id="a0fP3EQG-N4UkuNFzpcr-15" value="FALSE" style="edgeLabel;html=1;align=center;verticalAlign=middle;resizable=0;points=[];" vertex="1" connectable="0" parent="a0fP3EQG-N4UkuNFzpcr-14">
          <mxGeometry x="-0.5655" y="-1" relative="1" as="geometry">
            <mxPoint x="-1" as="offset" />
          </mxGeometry>
        </mxCell>
        <mxCell id="a0fP3EQG-N4UkuNFzpcr-16" value="POSTI&amp;nbsp; &amp;gt; 0" style="rhombus;whiteSpace=wrap;html=1;" vertex="1" parent="1">
          <mxGeometry x="681" y="720" width="290" height="80" as="geometry" />
        </mxCell>
        <mxCell id="a0fP3EQG-N4UkuNFzpcr-17" value="POSTI = POSTI - 1" style="whiteSpace=wrap;html=1;" vertex="1" parent="1">
          <mxGeometry x="1021" y="840" width="120" height="60" as="geometry" />
        </mxCell>
        <mxCell id="a0fP3EQG-N4UkuNFzpcr-18" value="" style="edgeStyle=orthogonalEdgeStyle;rounded=0;orthogonalLoop=1;jettySize=auto;html=1;" edge="1" parent="1" source="a0fP3EQG-N4UkuNFzpcr-19" target="a0fP3EQG-N4UkuNFzpcr-20">
          <mxGeometry relative="1" as="geometry">
            <Array as="points">
              <mxPoint x="601" y="1020" />
            </Array>
          </mxGeometry>
        </mxCell>
        <mxCell id="a0fP3EQG-N4UkuNFzpcr-19" value="WRITE &quot;NON CI SONO POSTI DISPONIBILI&quot;" style="whiteSpace=wrap;html=1;" vertex="1" parent="1">
          <mxGeometry x="531" y="840" width="120" height="60" as="geometry" />
        </mxCell>
        <mxCell id="a0fP3EQG-N4UkuNFzpcr-20" value="" style="ellipse;whiteSpace=wrap;html=1;" vertex="1" parent="1">
          <mxGeometry x="848" y="1010" width="20" height="20" as="geometry" />
        </mxCell>
        <mxCell id="a0fP3EQG-N4UkuNFzpcr-21" value="" style="endArrow=classic;html=1;rounded=0;exitX=0.5;exitY=1;exitDx=0;exitDy=0;entryX=1;entryY=1;entryDx=0;entryDy=0;" edge="1" parent="1" source="a0fP3EQG-N4UkuNFzpcr-17" target="a0fP3EQG-N4UkuNFzpcr-20">
          <mxGeometry width="50" height="50" relative="1" as="geometry">
            <mxPoint x="721" y="850" as="sourcePoint" />
            <mxPoint x="771" y="800" as="targetPoint" />
            <Array as="points">
              <mxPoint x="1081" y="1030" />
            </Array>
          </mxGeometry>
        </mxCell>
        <mxCell id="a0fP3EQG-N4UkuNFzpcr-22" value="" style="endArrow=classic;html=1;rounded=0;exitX=0.5;exitY=1;exitDx=0;exitDy=0;entryX=1;entryY=0.5;entryDx=0;entryDy=0;" edge="1" parent="1" source="a0fP3EQG-N4UkuNFzpcr-20" target="a0fP3EQG-N4UkuNFzpcr-8">
          <mxGeometry width="50" height="50" relative="1" as="geometry">
            <mxPoint x="641" y="900" as="sourcePoint" />
            <mxPoint x="691" y="850" as="targetPoint" />
            <Array as="points">
              <mxPoint x="858" y="1100" />
              <mxPoint x="1240" y="1100" />
              <mxPoint x="1241" y="540" />
            </Array>
          </mxGeometry>
        </mxCell>
        <mxCell id="a0fP3EQG-N4UkuNFzpcr-23" value="" style="endArrow=classic;html=1;rounded=0;exitX=0.5;exitY=1;exitDx=0;exitDy=0;" edge="1" parent="1" source="a0fP3EQG-N4UkuNFzpcr-11">
          <mxGeometry width="50" height="50" relative="1" as="geometry">
            <mxPoint x="591" y="1060" as="sourcePoint" />
            <mxPoint x="451" y="1300" as="targetPoint" />
          </mxGeometry>
        </mxCell>
        <mxCell id="a0fP3EQG-N4UkuNFzpcr-24" value="FALSE" style="edgeLabel;html=1;align=center;verticalAlign=middle;resizable=0;points=[];" vertex="1" connectable="0" parent="a0fP3EQG-N4UkuNFzpcr-23">
          <mxGeometry x="0.0206" y="-5" relative="1" as="geometry">
            <mxPoint y="1" as="offset" />
          </mxGeometry>
        </mxCell>
        <mxCell id="a0fP3EQG-N4UkuNFzpcr-25" value="" style="edgeStyle=orthogonalEdgeStyle;rounded=0;orthogonalLoop=1;jettySize=auto;html=1;" edge="1" parent="1" source="a0fP3EQG-N4UkuNFzpcr-28" target="a0fP3EQG-N4UkuNFzpcr-33">
          <mxGeometry relative="1" as="geometry" />
        </mxCell>
        <mxCell id="a0fP3EQG-N4UkuNFzpcr-26" value="TRUE" style="edgeLabel;html=1;align=center;verticalAlign=middle;resizable=0;points=[];" vertex="1" connectable="0" parent="a0fP3EQG-N4UkuNFzpcr-25">
          <mxGeometry x="-0.1461" y="-4" relative="1" as="geometry">
            <mxPoint as="offset" />
          </mxGeometry>
        </mxCell>
        <mxCell id="a0fP3EQG-N4UkuNFzpcr-27" value="" style="edgeStyle=orthogonalEdgeStyle;rounded=0;orthogonalLoop=1;jettySize=auto;html=1;" edge="1" parent="1" source="a0fP3EQG-N4UkuNFzpcr-28" target="a0fP3EQG-N4UkuNFzpcr-43">
          <mxGeometry relative="1" as="geometry" />
        </mxCell>
        <mxCell id="a0fP3EQG-N4UkuNFzpcr-28" value="OPZIONE == &quot;ANNULLA&quot;" style="rhombus;whiteSpace=wrap;html=1;" vertex="1" parent="1">
          <mxGeometry x="251" y="1300" width="410" height="80" as="geometry" />
        </mxCell>
        <mxCell id="a0fP3EQG-N4UkuNFzpcr-29" value="" style="edgeStyle=orthogonalEdgeStyle;rounded=0;orthogonalLoop=1;jettySize=auto;html=1;" edge="1" parent="1" source="a0fP3EQG-N4UkuNFzpcr-33" target="a0fP3EQG-N4UkuNFzpcr-34">
          <mxGeometry relative="1" as="geometry" />
        </mxCell>
        <mxCell id="a0fP3EQG-N4UkuNFzpcr-30" value="TRUE" style="edgeLabel;html=1;align=center;verticalAlign=middle;resizable=0;points=[];" vertex="1" connectable="0" parent="a0fP3EQG-N4UkuNFzpcr-29">
          <mxGeometry x="-0.3179" y="2" relative="1" as="geometry">
            <mxPoint x="-1" as="offset" />
          </mxGeometry>
        </mxCell>
        <mxCell id="a0fP3EQG-N4UkuNFzpcr-31" value="" style="edgeStyle=orthogonalEdgeStyle;rounded=0;orthogonalLoop=1;jettySize=auto;html=1;" edge="1" parent="1" source="a0fP3EQG-N4UkuNFzpcr-33" target="a0fP3EQG-N4UkuNFzpcr-36">
          <mxGeometry relative="1" as="geometry" />
        </mxCell>
        <mxCell id="a0fP3EQG-N4UkuNFzpcr-32" value="FALSE" style="edgeLabel;html=1;align=center;verticalAlign=middle;resizable=0;points=[];" vertex="1" connectable="0" parent="a0fP3EQG-N4UkuNFzpcr-31">
          <mxGeometry x="-0.2321" y="2" relative="1" as="geometry">
            <mxPoint x="-1" as="offset" />
          </mxGeometry>
        </mxCell>
        <mxCell id="a0fP3EQG-N4UkuNFzpcr-33" value="POSTI &amp;lt;&amp;nbsp; N" style="rhombus;whiteSpace=wrap;html=1;" vertex="1" parent="1">
          <mxGeometry x="741" y="1400" width="410" height="80" as="geometry" />
        </mxCell>
        <mxCell id="a0fP3EQG-N4UkuNFzpcr-34" value="POSTI = POSTI+1" style="whiteSpace=wrap;html=1;" vertex="1" parent="1">
          <mxGeometry x="1251" y="1560" width="120" height="60" as="geometry" />
        </mxCell>
        <mxCell id="a0fP3EQG-N4UkuNFzpcr-35" value="" style="edgeStyle=orthogonalEdgeStyle;rounded=0;orthogonalLoop=1;jettySize=auto;html=1;" edge="1" parent="1" source="a0fP3EQG-N4UkuNFzpcr-36" target="a0fP3EQG-N4UkuNFzpcr-37">
          <mxGeometry relative="1" as="geometry">
            <Array as="points">
              <mxPoint x="641" y="1710" />
            </Array>
          </mxGeometry>
        </mxCell>
        <mxCell id="a0fP3EQG-N4UkuNFzpcr-36" value="WRITE &quot;TUTTI I POSTI SONO DISPONIBILI&quot;" style="whiteSpace=wrap;html=1;" vertex="1" parent="1">
          <mxGeometry x="581" y="1550" width="120" height="60" as="geometry" />
        </mxCell>
        <mxCell id="a0fP3EQG-N4UkuNFzpcr-37" value="" style="ellipse;whiteSpace=wrap;html=1;" vertex="1" parent="1">
          <mxGeometry x="981" y="1700" width="20" height="20" as="geometry" />
        </mxCell>
        <mxCell id="a0fP3EQG-N4UkuNFzpcr-38" value="" style="endArrow=classic;html=1;rounded=0;exitX=0.5;exitY=1;exitDx=0;exitDy=0;entryX=1;entryY=0.5;entryDx=0;entryDy=0;" edge="1" parent="1" source="a0fP3EQG-N4UkuNFzpcr-34" target="a0fP3EQG-N4UkuNFzpcr-37">
          <mxGeometry width="50" height="50" relative="1" as="geometry">
            <mxPoint x="631" y="1760" as="sourcePoint" />
            <mxPoint x="681" y="1710" as="targetPoint" />
            <Array as="points">
              <mxPoint x="1311" y="1710" />
            </Array>
          </mxGeometry>
        </mxCell>
        <mxCell id="a0fP3EQG-N4UkuNFzpcr-39" value="" style="endArrow=classic;html=1;rounded=0;exitX=0.5;exitY=1;exitDx=0;exitDy=0;entryX=1;entryY=0;entryDx=0;entryDy=0;" edge="1" parent="1" source="a0fP3EQG-N4UkuNFzpcr-37" target="a0fP3EQG-N4UkuNFzpcr-8">
          <mxGeometry width="50" height="50" relative="1" as="geometry">
            <mxPoint x="631" y="1760" as="sourcePoint" />
            <mxPoint x="681" y="1710" as="targetPoint" />
            <Array as="points">
              <mxPoint x="991" y="1780" />
              <mxPoint x="1391" y="1780" />
              <mxPoint x="1391" y="500" />
            </Array>
          </mxGeometry>
        </mxCell>
        <mxCell id="a0fP3EQG-N4UkuNFzpcr-40" value="" style="edgeStyle=orthogonalEdgeStyle;rounded=0;orthogonalLoop=1;jettySize=auto;html=1;" edge="1" parent="1" source="a0fP3EQG-N4UkuNFzpcr-43" target="a0fP3EQG-N4UkuNFzpcr-44">
          <mxGeometry relative="1" as="geometry" />
        </mxCell>
        <mxCell id="a0fP3EQG-N4UkuNFzpcr-41" value="TRUE" style="edgeLabel;html=1;align=center;verticalAlign=middle;resizable=0;points=[];" vertex="1" connectable="0" parent="a0fP3EQG-N4UkuNFzpcr-40">
          <mxGeometry x="0.2993" relative="1" as="geometry">
            <mxPoint x="-1" as="offset" />
          </mxGeometry>
        </mxCell>
        <mxCell id="a0fP3EQG-N4UkuNFzpcr-53" value="" style="edgeStyle=orthogonalEdgeStyle;rounded=0;orthogonalLoop=1;jettySize=auto;html=1;" edge="1" parent="1" source="a0fP3EQG-N4UkuNFzpcr-43" target="a0fP3EQG-N4UkuNFzpcr-52">
          <mxGeometry relative="1" as="geometry" />
        </mxCell>
        <mxCell id="a0fP3EQG-N4UkuNFzpcr-54" value="FALSE" style="edgeLabel;html=1;align=center;verticalAlign=middle;resizable=0;points=[];" vertex="1" connectable="0" parent="a0fP3EQG-N4UkuNFzpcr-53">
          <mxGeometry x="-0.3267" y="1" relative="1" as="geometry">
            <mxPoint as="offset" />
          </mxGeometry>
        </mxCell>
        <mxCell id="a0fP3EQG-N4UkuNFzpcr-43" value="OPZIONE == &quot;VISUALIZZA&quot;" style="rhombus;whiteSpace=wrap;html=1;" vertex="1" parent="1">
          <mxGeometry x="251" y="1980" width="410" height="80" as="geometry" />
        </mxCell>
        <mxCell id="a0fP3EQG-N4UkuNFzpcr-44" value="WRITE LIBERI&lt;div&gt;WRITE N - LIBERI&lt;/div&gt;" style="shape=parallelogram;perimeter=parallelogramPerimeter;whiteSpace=wrap;html=1;fixedSize=1;" vertex="1" parent="1">
          <mxGeometry x="886" y="1990" width="155" height="60" as="geometry" />
        </mxCell>
        <mxCell id="a0fP3EQG-N4UkuNFzpcr-45" value="" style="endArrow=classic;html=1;rounded=0;exitX=1;exitY=0.5;exitDx=0;exitDy=0;entryX=0.75;entryY=0;entryDx=0;entryDy=0;" edge="1" parent="1" source="a0fP3EQG-N4UkuNFzpcr-44" target="a0fP3EQG-N4UkuNFzpcr-8">
          <mxGeometry width="50" height="50" relative="1" as="geometry">
            <mxPoint x="641" y="2030" as="sourcePoint" />
            <mxPoint x="691" y="1980" as="targetPoint" />
            <Array as="points">
              <mxPoint x="1470" y="2020" />
              <mxPoint x="1470" y="470" />
              <mxPoint x="541" y="470" />
            </Array>
          </mxGeometry>
        </mxCell>
        <mxCell id="a0fP3EQG-N4UkuNFzpcr-46" value="" style="edgeStyle=orthogonalEdgeStyle;rounded=0;orthogonalLoop=1;jettySize=auto;html=1;" edge="1" parent="1" source="a0fP3EQG-N4UkuNFzpcr-48" target="a0fP3EQG-N4UkuNFzpcr-51">
          <mxGeometry relative="1" as="geometry" />
        </mxCell>
        <mxCell id="a0fP3EQG-N4UkuNFzpcr-47" value="TRUE" style="edgeLabel;html=1;align=center;verticalAlign=middle;resizable=0;points=[];" vertex="1" connectable="0" parent="a0fP3EQG-N4UkuNFzpcr-46">
          <mxGeometry x="-0.2099" y="3" relative="1" as="geometry">
            <mxPoint as="offset" />
          </mxGeometry>
        </mxCell>
        <mxCell id="a0fP3EQG-N4UkuNFzpcr-48" value="OPZIONE == &quot;ESCI&quot;" style="rhombus;whiteSpace=wrap;html=1;" vertex="1" parent="1">
          <mxGeometry x="251" y="2500" width="410" height="80" as="geometry" />
        </mxCell>
        <mxCell id="a0fP3EQG-N4UkuNFzpcr-49" value="" style="endArrow=classic;html=1;rounded=0;exitX=0;exitY=0.5;exitDx=0;exitDy=0;entryX=0;entryY=0.5;entryDx=0;entryDy=0;" edge="1" parent="1" source="a0fP3EQG-N4UkuNFzpcr-48" target="a0fP3EQG-N4UkuNFzpcr-8">
          <mxGeometry width="50" height="50" relative="1" as="geometry">
            <mxPoint x="571" y="2030" as="sourcePoint" />
            <mxPoint x="621" y="1980" as="targetPoint" />
            <Array as="points">
              <mxPoint x="131" y="2540" />
              <mxPoint x="131" y="2240" />
              <mxPoint x="131" y="540" />
            </Array>
          </mxGeometry>
        </mxCell>
        <mxCell id="a0fP3EQG-N4UkuNFzpcr-50" value="FALSE" style="edgeLabel;html=1;align=center;verticalAlign=middle;resizable=0;points=[];" vertex="1" connectable="0" parent="a0fP3EQG-N4UkuNFzpcr-49">
          <mxGeometry x="-0.7212" y="3" relative="1" as="geometry">
            <mxPoint y="-1" as="offset" />
          </mxGeometry>
        </mxCell>
        <mxCell id="a0fP3EQG-N4UkuNFzpcr-51" value="END" style="ellipse;whiteSpace=wrap;html=1;" vertex="1" parent="1">
          <mxGeometry x="382" y="2660" width="150" height="80" as="geometry" />
        </mxCell>
        <mxCell id="a0fP3EQG-N4UkuNFzpcr-55" style="edgeStyle=orthogonalEdgeStyle;rounded=0;orthogonalLoop=1;jettySize=auto;html=1;exitX=0.5;exitY=1;exitDx=0;exitDy=0;entryX=0.5;entryY=0;entryDx=0;entryDy=0;" edge="1" parent="1" source="a0fP3EQG-N4UkuNFzpcr-52" target="a0fP3EQG-N4UkuNFzpcr-48">
          <mxGeometry relative="1" as="geometry" />
        </mxCell>
        <mxCell id="a0fP3EQG-N4UkuNFzpcr-56" value="FALSE" style="edgeLabel;html=1;align=center;verticalAlign=middle;resizable=0;points=[];" vertex="1" connectable="0" parent="a0fP3EQG-N4UkuNFzpcr-55">
          <mxGeometry x="-0.2851" y="1" relative="1" as="geometry">
            <mxPoint as="offset" />
          </mxGeometry>
        </mxCell>
        <mxCell id="a0fP3EQG-N4UkuNFzpcr-64" style="edgeStyle=orthogonalEdgeStyle;rounded=0;orthogonalLoop=1;jettySize=auto;html=1;exitX=1;exitY=0.5;exitDx=0;exitDy=0;" edge="1" parent="1" source="a0fP3EQG-N4UkuNFzpcr-52">
          <mxGeometry relative="1" as="geometry">
            <mxPoint x="1250" y="2240" as="targetPoint" />
          </mxGeometry>
        </mxCell>
        <mxCell id="a0fP3EQG-N4UkuNFzpcr-52" value="OPZIONE == &quot;ELIMINA&quot;" style="rhombus;whiteSpace=wrap;html=1;" vertex="1" parent="1">
          <mxGeometry x="250" y="2200" width="410" height="80" as="geometry" />
        </mxCell>
        <mxCell id="a0fP3EQG-N4UkuNFzpcr-61" style="edgeStyle=orthogonalEdgeStyle;rounded=0;orthogonalLoop=1;jettySize=auto;html=1;exitX=1;exitY=0.5;exitDx=0;exitDy=0;entryX=0.75;entryY=0;entryDx=0;entryDy=0;" edge="1" parent="1" target="a0fP3EQG-N4UkuNFzpcr-8">
          <mxGeometry relative="1" as="geometry">
            <mxPoint x="1240" y="2240" as="sourcePoint" />
            <Array as="points">
              <mxPoint x="1580" y="2240" />
              <mxPoint x="1580" y="440" />
              <mxPoint x="485" y="440" />
            </Array>
          </mxGeometry>
        </mxCell>
        <mxCell id="a0fP3EQG-N4UkuNFzpcr-63" value="" style="edgeStyle=orthogonalEdgeStyle;rounded=0;orthogonalLoop=1;jettySize=auto;html=1;entryX=0.5;entryY=0;entryDx=0;entryDy=0;" edge="1" parent="1" source="a0fP3EQG-N4UkuNFzpcr-2" target="a0fP3EQG-N4UkuNFzpcr-62">
          <mxGeometry relative="1" as="geometry">
            <mxPoint x="455" y="140" as="sourcePoint" />
            <mxPoint x="455" y="280" as="targetPoint" />
          </mxGeometry>
        </mxCell>
        <mxCell id="a0fP3EQG-N4UkuNFzpcr-62" value="Read corso" style="shape=parallelogram;perimeter=parallelogramPerimeter;whiteSpace=wrap;html=1;fixedSize=1;" vertex="1" parent="1">
          <mxGeometry x="395" y="180" width="120" height="60" as="geometry" />
        </mxCell>
      </root>
    </mxGraphModel>
  </diagram>
</mxfile>
